<?xml version="1.0" encoding="UTF-8" standalone="no"?>
<!-- Created with Inkscape (http://www.inkscape.org/) -->

<svg
   width="87.972137mm"
   height="1.1999999mm"
   viewBox="0 0 87.972138 1.1999999"
   version="1.1"
   id="svg5"
   inkscape:version="1.1.2 (0a00cf5339, 2022-02-04, custom)"
   sodipodi:docname="raphael_label.svg"
   inkscape:export-filename="/home/alvaro/Desktop/AcheronProject/Raphael/resources/raphael_label_outline.png"
   inkscape:export-xdpi="1000"
   inkscape:export-ydpi="1000"
   xmlns:inkscape="http://www.inkscape.org/namespaces/inkscape"
   xmlns:sodipodi="http://sodipodi.sourceforge.net/DTD/sodipodi-0.dtd"
   xmlns="http://www.w3.org/2000/svg"
   xmlns:svg="http://www.w3.org/2000/svg">
  <sodipodi:namedview
     id="namedview7"
     pagecolor="#ffffff"
     bordercolor="#666666"
     borderopacity="1.0"
     inkscape:pageshadow="2"
     inkscape:pageopacity="0.0"
     inkscape:pagecheckerboard="0"
     inkscape:document-units="mm"
     showgrid="false"
     inkscape:zoom="1.1070189"
     inkscape:cx="107.94757"
     inkscape:cy="-144.98398"
     inkscape:window-width="1920"
     inkscape:window-height="1043"
     inkscape:window-x="1920"
     inkscape:window-y="305"
     inkscape:window-maximized="1"
     inkscape:current-layer="layer1" />
  <defs
     id="defs2">
    <rect
       x="-404.59015"
       y="289.07516"
       width="2511.0642"
       height="83.938934"
       id="rect2805" />
    <rect
       x="-404.59015"
       y="289.07516"
       width="2511.0642"
       height="83.938934"
       id="rect986" />
    <rect
       x="-404.59015"
       y="289.07516"
       width="2511.0642"
       height="83.938934"
       id="rect4529" />
    <rect
       x="-404.59015"
       y="289.07516"
       width="2511.0642"
       height="83.938934"
       id="rect1011" />
    <rect
       x="-404.59015"
       y="289.07516"
       width="2511.0642"
       height="83.938934"
       id="rect10285" />
  </defs>
  <g
     inkscape:label="Layer 1"
     inkscape:groupmode="layer"
     id="layer1"
     transform="translate(109.96893,-118.90802)">
    <text
       xml:space="preserve"
       transform="matrix(0.03682567,0,0,0.03246753,-91.55627,67.757903)"
       id="text2803"
       style="font-style:normal;font-variant:normal;font-weight:normal;font-stretch:normal;font-size:40px;line-height:1.25;font-family:Pirulen;-inkscape-font-specification:Pirulen;white-space:pre;shape-inside:url(#rect2805);fill:#000000;fill-opacity:1;stroke:none;stroke-width:8.67603;stroke-linecap:round;stroke-linejoin:round;stroke-miterlimit:4;stroke-dasharray:none;stroke-opacity:1"><tspan
         x="-404.58984"
         y="324.47422"
         id="tspan10508"><tspan
           dx="0 0 0 0 0 0 0 0 0 0 0 0 0 0 0 0 0 0 0 0 0 0 0 0 0 0 0 0 0 0 0 0 0 0 0 0 0 0 0 0 0 0 0 0 0 0 0 0 -0.00010681152 0 0 0 0 0 0 0 0 0 0 0 0 0 0 0 0 0 0 -0.0001373291 0 0 0.0001373291"
           id="tspan10506">RAPHAEL REV. ALPHA RC1 | DESIGNED BY GONDOLINDRIM FOR THE ACHERON PROJECT</tspan></tspan></text>
    <g
       aria-label="RAPHAEL REV. ALPHA-RC1 | DESIGNED BY GONDOLINDRIM FOR THE ACHERONPROJECT"
       transform="matrix(0.08116883,0,0,0.08116883,-73.730769,78.916797)"
       id="text984"
       style="font-size:40px;line-height:1.25;font-family:Pirulen;-inkscape-font-specification:Pirulen;white-space:pre;shape-inside:url(#rect986);stroke:none;stroke-width:3.696;stroke-linecap:round;stroke-linejoin:round" />
    <g
       aria-label="RAPHAEL REV. ALPHA RC1 | DESIGNED BY GONDOLINDRIM FOR THE ACHERON PROJECT"
       transform="matrix(0.03682567,0,0,0.03246753,-95.165389,109.43029)"
       id="text10283"
       style="font-size:40px;line-height:1.25;font-family:Pirulen;-inkscape-font-specification:Pirulen;white-space:pre;shape-inside:url(#rect10285);stroke-width:8.67603;stroke-linecap:round;stroke-linejoin:round">
      <path
         d="m -369.54984,324.47422 -6.64,-12.64 c 5,-0.48 6.96,-3.08 6.96,-6.72 v -2 c 0,-4.04 -2.44,-6.8 -8.84,-6.8 h -23.92 v 28.16 h 5.32 v -12.56 h 14.84 l 6.6,12.56 z m -5,-19.32 c 0,1.68 -1.12,2.6 -3.52,2.6 h -18.6 v -7.28 h 18.6 c 2.4,0 3.52,0.92 3.52,2.6 z"
         id="path10287" />
      <path
         d="m -326.34982,324.47422 -18.6,-28.16 h -3.88 l -18.72,28.16 h 5.92 l 14.76,-22.68 14.52,22.68 z"
         id="path10289" />
      <path
         d="m -300.66979,314.07422 c 6.4,0 8.84,-2.76 8.84,-6.8 v -4.16 c 0,-4.04 -2.44,-6.8 -8.84,-6.8 h -23.08 v 28.16 h 5.32 v -10.4 z m 3.52,-6.76 c 0,1.68 -1.12,2.6 -3.52,2.6 h -17.76 v -9.44 h 17.76 c 2.4,0 3.52,0.92 3.52,2.6 z"
         id="path10291" />
      <path
         d="m -254.42976,324.47422 v -28.16 h -5.32 v 11.2 h -23.04 v -11.2 h -5.32 v 28.16 h 5.32 v -12.8 h 23.04 v 12.8 z"
         id="path10293" />
      <path
         d="m -210.62976,324.47422 -18.6,-28.16 h -3.88 l -18.72,28.16 h 5.92 l 14.76,-22.68 14.52,22.68 z"
         id="path10295" />
      <path
         d="m -179.06973,324.47422 v -4.16 h -23.64 v -8.64 h 22.44 v -4.16 h -22.44 v -7.04 h 23.64 v -4.16 h -28.96 v 28.16 z"
         id="path10297" />
      <path
         d="m -146.34973,324.47422 v -4.16 h -22.84 v -24 h -5.36 v 28.16 z"
         id="path10299" />
      <path
         d="m -90.189736,324.47422 -6.64,-12.64 c 5,-0.48 6.96,-3.08 6.96,-6.72 v -2 c 0,-4.04 -2.44,-6.8 -8.84,-6.8 h -23.920004 v 28.16 h 5.32 v -12.56 h 14.84 l 6.600004,12.56 z m -5,-19.32 c 0,1.68 -1.12,2.6 -3.52,2.6 h -18.600004 v -7.28 h 18.600004 c 2.4,0 3.52,0.92 3.52,2.6 z"
         id="path10301" />
      <path
         d="m -56.629697,324.47422 v -4.16 h -23.64 v -8.64 h 22.44 v -4.16 h -22.44 v -7.04 h 23.64 v -4.16 h -28.96 v 28.16 z"
         id="path10303" />
      <path
         d="m -32.109717,324.47422 18.6,-28.16 h -5.88 l -14.56,22.68 -14.72,-22.68 h -6.04 l 18.72,28.16 z"
         id="path10305" />
      <path
         d="m -10.389672,324.47422 v -5.2 h -6.28 v 5.2 z"
         id="path10307" />
      <path
         d="m 53.530322,324.47422 -18.6,-28.16 h -3.88 l -18.72,28.16 h 5.92 l 14.76,-22.68 14.52,22.68 z"
         id="path10309" />
      <path
         d="m 84.330334,324.47422 v -4.16 h -22.84 v -24 h -5.36 v 28.16 z"
         id="path10311" />
      <path
         d="m 111.13038,314.07422 c 6.4,0 8.84,-2.76 8.84,-6.8 v -4.16 c 0,-4.04 -2.44,-6.8 -8.84,-6.8 H 88.050378 v 28.16 h 5.32 v -10.4 z m 3.52,-6.76 c 0,1.68 -1.12,2.6 -3.52,2.6 H 93.370378 v -9.44 h 17.760002 c 2.4,0 3.52,0.92 3.52,2.6 z"
         id="path10313" />
      <path
         d="m 157.37039,324.47422 v -28.16 h -5.32 v 11.2 h -23.04 v -11.2 h -5.32 v 28.16 h 5.32 v -12.8 h 23.04 v 12.8 z"
         id="path10315" />
      <path
         d="m 201.1704,324.47422 -18.6,-28.16 h -3.88 l -18.72,28.16 h 5.92 l 14.76,-22.68 14.52,22.68 z"
         id="path10317" />
      <path
         d="m 256.21041,324.47422 -6.64,-12.64 c 5,-0.48 6.96,-3.08 6.96,-6.72 v -2 c 0,-4.04 -2.44,-6.8 -8.84,-6.8 h -23.92 v 28.16 h 5.32 v -12.56 h 14.84 l 6.6,12.56 z m -5,-19.32 c 0,1.68 -1.12,2.6 -3.52,2.6 h -18.6 v -7.28 h 18.6 c 2.4,0 3.52,0.92 3.52,2.6 z"
         id="path10319" />
      <path
         d="m 292.13045,324.47422 v -4.16 h -22.68 c -2.4,0 -3.52,-0.92 -3.52,-2.6 v -14.64 c 0,-1.68 1.12,-2.6 3.52,-2.6 h 22.68 v -4.16 h -22.68 c -6.4,0 -8.84,2.76 -8.84,6.8 v 14.56 c 0,4.04 2.44,6.8 8.84,6.8 z"
         id="path10321" />
      <path
         d="m 307.0905,324.47422 v -28.16 h -7.4 l -5.48,6.2 h 5.6 l 1.96,-2.24 v 24.2 z"
         id="path10323" />
      <path
         d="m 338.05047,328.87422 v -36.96 h -3.72 v 36.96 z"
         id="path10325" />
      <path
         d="m 391.05045,324.47422 c 7.96,0 10.4,-2.76 10.4,-8.04 v -11.8 c 0,-5.56 -2.44,-8.32 -10.4,-8.32 h -25.8 v 28.16 z m 5.08,-8.08 c 0,3 -1.12,3.92 -5.08,3.92 h -20.48 v -19.84 h 20.48 c 3.96,0 5.08,0.92 5.08,4.16 z"
         id="path10327" />
      <path
         d="m 435.41046,324.47422 v -4.16 h -23.64 v -8.64 h 22.44 v -4.16 h -22.44 v -7.04 h 23.64 v -4.16 h -28.96 v 28.16 z"
         id="path10329" />
      <path
         d="m 464.77044,324.47422 c 6.4,0 8.84,-2.76 8.84,-6.8 v -3.48 c 0,-4.04 -2.44,-6.8 -8.84,-6.8 h -16.56 c -2.4,0 -3.52,-0.92 -3.52,-2.6 v -1.72 c 0,-1.68 1.12,-2.6 3.52,-2.6 h 23.84 v -4.16 h -23.84 c -6.4,0 -8.84,2.76 -8.84,6.8 v 1.64 c 0,4.04 2.44,6.8 8.84,6.8 h 16.56 c 2.4,0 3.52,0.92 3.52,2.6 v 3.56 c 0,1.68 -1.12,2.6 -3.52,2.6 h -24.48 v 4.16 z"
         id="path10331" />
      <path
         d="m 483.49048,324.47422 v -28.16 h -5.32 v 28.16 z"
         id="path10333" />
      <path
         d="m 511.17053,324.47422 c 6.68,0 10.04,-2 10.04,-6 v -9.36 h -5.32 v 9.36 c 0,1.24 -1.56,1.84 -4.72,1.84 h -12.44 c -3.16,0 -4.72,-0.64 -4.72,-1.92 v -16 c 0,-1.28 1.56,-1.92 4.72,-1.92 h 22.04 v -4.16 h -22.04 c -6.68,0 -10.04,2.04 -10.04,6.08 v 16 c 0,4.04 3.36,6.08 10.04,6.08 z"
         id="path10335" />
      <path
         d="m 563.41052,324.47422 v -28.16 h -4.64 v 20.92 l -28.04,-20.92 h -4.6 v 28.16 h 4.64 v -21.92 l 30.04,21.92 z"
         id="path10337" />
      <path
         d="m 597.5705,324.47422 v -4.16 h -23.64 v -8.64 h 22.44 v -4.16 h -22.44 v -7.04 h 23.64 v -4.16 h -28.96 v 28.16 z"
         id="path10339" />
      <path
         d="m 627.89048,324.47422 c 7.96,0 10.4,-2.76 10.4,-8.04 v -11.8 c 0,-5.56 -2.44,-8.32 -10.4,-8.32 h -25.8 v 28.16 z m 5.08,-8.08 c 0,3 -1.12,3.92 -5.08,3.92 h -20.48 v -19.84 h 20.48 c 3.96,0 5.08,0.92 5.08,4.16 z"
         id="path10341" />
      <path
         d="m 686.29055,324.47422 c 6.96,0 8.92,-2.88 8.92,-6.08 v -4.12 c 0,-2.72 -1.56,-4.04 -3.68,-4.6 2,-0.4 3.32,-2.24 3.32,-4.68 v -2.6 c 0,-3.76 -2.4,-6.08 -8.64,-6.08 h -22.92 v 28.16 z m 3.6,-7.08 c 0,2.28 -1.48,2.92 -3.6,2.92 h -17.68 v -8.36 h 17.68 c 2.12,0 3.6,0.64 3.6,2.4 z m -0.36,-11.8 c 0,1.56 -0.84,2.2 -3.32,2.2 h -17.6 v -7.32 h 17.6 c 2.48,0 3.32,0.64 3.32,2.2 z"
         id="path10343" />
      <path
         d="m 719.21055,324.47422 v -11.44 l 17.96,-16.72 h -6.72 l -13.92,12.88 -13.92,-12.88 h -6.8 l 18.08,16.72 v 11.44 z"
         id="path10345" />
      <path
         d="m 782.05053,324.47422 c 6.68,0 10.04,-2 10.04,-6 v -9.36 h -5.32 v 9.36 c 0,1.24 -1.56,1.84 -4.72,1.84 h -12.44 c -3.16,0 -4.72,-0.64 -4.72,-1.92 v -16 c 0,-1.28 1.56,-1.92 4.72,-1.92 h 22.04 v -4.16 h -22.04 c -6.68,0 -10.04,2.04 -10.04,6.08 v 16 c 0,4.04 3.36,6.08 10.04,6.08 z"
         id="path10347" />
      <path
         d="m 824.25052,324.47422 c 6.4,0 8.84,-2.76 8.84,-6.8 v -14.56 c 0,-4.04 -2.44,-6.8 -8.84,-6.8 h -18.6 c -6.4,0 -8.84,2.76 -8.84,6.8 v 14.56 c 0,4.04 2.44,6.8 8.84,6.8 z m 3.52,-6.76 c 0,1.68 -1.12,2.6 -3.52,2.6 h -18.6 c -2.4,0 -3.52,-0.92 -3.52,-2.6 v -14.64 c 0,-1.68 1.12,-2.6 3.52,-2.6 h 18.6 c 2.4,0 3.52,0.92 3.52,2.6 z"
         id="path10349" />
      <path
         d="m 875.3706,324.47422 v -28.16 h -4.64 v 20.92 l -28.04,-20.92 h -4.6 v 28.16 h 4.64 v -21.92 l 30.04,21.92 z"
         id="path10351" />
      <path
         d="m 906.37058,324.47422 c 7.96,0 10.4,-2.76 10.4,-8.04 v -11.8 c 0,-5.56 -2.44,-8.32 -10.4,-8.32 h -25.8 v 28.16 z m 5.08,-8.08 c 0,3 -1.12,3.92 -5.08,3.92 h -20.48 v -19.84 h 20.48 c 3.96,0 5.08,0.92 5.08,4.16 z"
         id="path10353" />
      <path
         d="m 949.01065,324.47422 c 6.4,0 8.84,-2.76 8.84,-6.8 v -14.56 c 0,-4.04 -2.44,-6.8 -8.84,-6.8 h -18.6 c -6.4,0 -8.84,2.76 -8.84,6.8 v 14.56 c 0,4.04 2.44,6.8 8.84,6.8 z m 3.52,-6.76 c 0,1.68 -1.12,2.6 -3.52,2.6 h -18.6 c -2.4,0 -3.52,-0.92 -3.52,-2.6 v -14.64 c 0,-1.68 1.12,-2.6 3.52,-2.6 h 18.6 c 2.4,0 3.52,0.92 3.52,2.6 z"
         id="path10355" />
      <path
         d="m 991.05061,324.47422 v -4.16 h -22.84 v -24 h -5.36 v 28.16 z"
         id="path10357" />
      <path
         d="m 1000.2907,324.47422 v -28.16 h -5.32005 v 28.16 z"
         id="path10359" />
      <path
         d="m 1042.9707,324.47422 v -28.16 h -4.64 v 20.92 l -28.04,-20.92 h -4.6 v 28.16 h 4.64 v -21.92 l 30.04,21.92 z"
         id="path10361" />
      <path
         d="m 1073.9707,324.47422 c 7.96,0 10.4,-2.76 10.4,-8.04 v -11.8 c 0,-5.56 -2.44,-8.32 -10.4,-8.32 h -25.8 v 28.16 z m 5.08,-8.08 c 0,3 -1.12,3.92 -5.08,3.92 h -20.48 v -19.84 h 20.48 c 3.96,0 5.08,0.92 5.08,4.16 z"
         id="path10363" />
      <path
         d="m 1121.8108,324.47422 -6.64,-12.64 c 5,-0.48 6.96,-3.08 6.96,-6.72 v -2 c 0,-4.04 -2.44,-6.8 -8.84,-6.8 h -23.92 v 28.16 h 5.32 v -12.56 h 14.84 l 6.6,12.56 z m -5,-19.32 c 0,1.68 -1.12,2.6 -3.52,2.6 h -18.6 v -7.28 h 18.6 c 2.4,0 3.52,0.92 3.52,2.6 z"
         id="path10365" />
      <path
         d="m 1131.9308,324.47422 v -28.16 h -5.32 v 28.16 z"
         id="path10367" />
      <path
         d="m 1180.2107,324.47422 v -28.16 h -4.56 l -16.64,23 -16.72,-23 h -4.96 v 28.16 h 4.92 v -19.68 l 14.36,19.68 h 4.36 l 14.32,-19.72 v 19.72 z"
         id="path10369" />
      <path
         d="m 1232.7708,312.87422 v -4.16 h -22.04 v -8.24 h 23.64 v -4.16 h -28.96 v 28.16 h 5.32 v -11.6 z"
         id="path10371" />
      <path
         d="m 1264.4908,324.47422 c 6.4,0 8.84,-2.76 8.84,-6.8 v -14.56 c 0,-4.04 -2.44,-6.8 -8.84,-6.8 h -18.6 c -6.4,0 -8.84,2.76 -8.84,6.8 v 14.56 c 0,4.04 2.44,6.8 8.84,6.8 z m 3.52,-6.76 c 0,1.68 -1.12,2.6 -3.52,2.6 h -18.6 c -2.4,0 -3.52,-0.92 -3.52,-2.6 v -14.64 c 0,-1.68 1.12,-2.6 3.52,-2.6 h 18.6 c 2.4,0 3.52,0.92 3.52,2.6 z"
         id="path10373" />
      <path
         d="m 1310.7707,324.47422 -6.64,-12.64 c 5,-0.48 6.96,-3.08 6.96,-6.72 v -2 c 0,-4.04 -2.44,-6.8 -8.84,-6.8 h -23.92 v 28.16 h 5.32 v -12.56 h 14.84 l 6.6,12.56 z m -5,-19.32 c 0,1.68 -1.12,2.6 -3.52,2.6 h -18.6 v -7.28 h 18.6 c 2.4,0 3.52,0.92 3.52,2.6 z"
         id="path10375" />
      <path
         d="m 1353.7708,324.47422 v -24 h 14.36 v -4.16 h -34.44 v 4.16 h 14.76 v 24 z"
         id="path10377" />
      <path
         d="m 1405.3707,324.47422 v -28.16 h -5.32 v 11.2 h -23.04 v -11.2 h -5.32 v 28.16 h 5.32 v -12.8 h 23.04 v 12.8 z"
         id="path10379" />
      <path
         d="m 1439.5307,324.47422 v -4.16 h -23.64 v -8.64 h 22.44 v -4.16 h -22.44 v -7.04 h 23.64 v -4.16 h -28.96 v 28.16 z"
         id="path10381" />
      <path
         d="m 1502.6507,324.47422 -18.6,-28.16 h -3.88 l -18.72,28.16 h 5.92 l 14.76,-22.68 14.52,22.68 z"
         id="path10383" />
      <path
         d="m 1534.8508,324.47422 v -4.16 h -22.68 c -2.4,0 -3.52,-0.92 -3.52,-2.6 v -14.64 c 0,-1.68 1.12,-2.6 3.52,-2.6 h 22.68 v -4.16 h -22.68 c -6.4,0 -8.84,2.76 -8.84,6.8 v 14.56 c 0,4.04 2.44,6.8 8.84,6.8 z"
         id="path10385" />
      <path
         d="m 1573.0108,324.47422 v -28.16 h -5.32 v 11.2 h -23.04 v -11.2 h -5.32 v 28.16 h 5.32 v -12.8 h 23.04 v 12.8 z"
         id="path10387" />
      <path
         d="m 1607.1708,324.47422 v -4.16 h -23.64 v -8.64 h 22.44 v -4.16 h -22.44 v -7.04 h 23.64 v -4.16 h -28.96 v 28.16 z"
         id="path10389" />
      <path
         d="m 1644.1308,324.47422 -6.64,-12.64 c 5,-0.48 6.96,-3.08 6.96,-6.72 v -2 c 0,-4.04 -2.44,-6.8 -8.84,-6.8 h -23.92 v 28.16 h 5.32 v -12.56 h 14.84 l 6.6,12.56 z m -5,-19.32 c 0,1.68 -1.12,2.6 -3.52,2.6 h -18.6 v -7.28 h 18.6 c 2.4,0 3.52,0.92 3.52,2.6 z"
         id="path10391" />
      <path
         d="m 1675.9709,324.47422 c 6.4,0 8.84,-2.76 8.84,-6.8 v -14.56 c 0,-4.04 -2.44,-6.8 -8.84,-6.8 h -18.6 c -6.4,0 -8.84,2.76 -8.84,6.8 v 14.56 c 0,4.04 2.44,6.8 8.84,6.8 z m 3.52,-6.76 c 0,1.68 -1.12,2.6 -3.52,2.6 h -18.6 c -2.4,0 -3.52,-0.92 -3.52,-2.6 v -14.64 c 0,-1.68 1.12,-2.6 3.52,-2.6 h 18.6 c 2.4,0 3.52,0.92 3.52,2.6 z"
         id="path10393" />
      <path
         d="m 1727.0909,324.47422 v -28.16 h -4.64 v 20.92 l -28.04,-20.92 h -4.6 v 28.16 h 4.64 v -21.92 l 30.04,21.92 z"
         id="path10395" />
      <path
         d="m 1775.3709,314.07422 c 6.4,0 8.84,-2.76 8.84,-6.8 v -4.16 c 0,-4.04 -2.44,-6.8 -8.84,-6.8 h -23.08 v 28.16 h 5.32 v -10.4 z m 3.52,-6.76 c 0,1.68 -1.12,2.6 -3.52,2.6 h -17.76 v -9.44 h 17.76 c 2.4,0 3.52,0.92 3.52,2.6 z"
         id="path10397" />
      <path
         d="m 1820.3708,324.47422 -6.64,-12.64 c 5,-0.48 6.96,-3.08 6.96,-6.72 v -2 c 0,-4.04 -2.44,-6.8 -8.84,-6.8 h -23.92 v 28.16 h 5.32 v -12.56 h 14.84 l 6.6,12.56 z m -5,-19.32 c 0,1.68 -1.12,2.6 -3.52,2.6 h -18.6 v -7.28 h 18.6 c 2.4,0 3.52,0.92 3.52,2.6 z"
         id="path10399" />
      <path
         d="m 1852.2108,324.47422 c 6.4,0 8.84,-2.76 8.84,-6.8 v -14.56 c 0,-4.04 -2.44,-6.8 -8.84,-6.8 h -18.6 c -6.4,0 -8.84,2.76 -8.84,6.8 v 14.56 c 0,4.04 2.44,6.8 8.84,6.8 z m 3.52,-6.76 c 0,1.68 -1.12,2.6 -3.52,2.6 h -18.6 c -2.4,0 -3.52,-0.92 -3.52,-2.6 v -14.64 c 0,-1.68 1.12,-2.6 3.52,-2.6 h 18.6 c 2.4,0 3.52,0.92 3.52,2.6 z"
         id="path10401" />
      <path
         d="m 1870.9709,324.47422 c 6.24,0 8.8,-2.52 8.8,-6 v -22.16 h -5.32 v 22.16 c 0,1.24 -1.04,1.84 -3.48,1.84 h -7.72 v 4.16 z"
         id="path10403" />
      <path
         d="m 1913.811,324.47422 v -4.16 h -23.64 v -8.64 h 22.44 v -4.16 h -22.44 v -7.04 h 23.64 v -4.16 h -28.96 v 28.16 z"
         id="path10405" />
      <path
         d="m 1949.651,324.47422 v -4.16 h -22.68 c -2.4,0 -3.52,-0.92 -3.52,-2.6 v -14.64 c 0,-1.68 1.12,-2.6 3.52,-2.6 h 22.68 v -4.16 h -22.68 c -6.4,0 -8.84,2.76 -8.84,6.8 v 14.56 c 0,4.04 2.44,6.8 8.84,6.8 z"
         id="path10407" />
      <path
         d="m 1972.531,324.47422 v -24 h 14.36 v -4.16 h -34.44 v 4.16 h 14.76 v 24 z"
         id="path10409" />
    </g>
  </g>
</svg>
